<svg width="50" height="57" viewBox="0 0 50 57" fill="none" xmlns="http://www.w3.org/2000/svg">
<path d="M0 0.399475H50V46.2112V53.9754H0V0.399475Z" fill="url(#paint0_linear_688:240)"/>
<path d="M18.916 41.578H36.754V37.492H25.63L32.272 31.606C33.256 30.742 34.078 29.956 34.738 29.248C35.41 28.528 35.914 27.754 36.25 26.926C36.586 26.086 36.754 25.048 36.754 23.812C36.754 22.12 36.37 20.626 35.602 19.33C34.846 18.022 33.814 17.002 32.506 16.27C31.198 15.526 29.71 15.154 28.042 15.154C26.254 15.154 24.676 15.508 23.308 16.216C21.94 16.924 20.872 17.92 20.104 19.204C19.336 20.488 18.952 21.994 18.952 23.722H23.416C23.392 22.93 23.572 22.192 23.956 21.508C24.34 20.824 24.874 20.278 25.558 19.87C26.254 19.45 27.052 19.24 27.952 19.24C29.236 19.24 30.28 19.672 31.084 20.536C31.9 21.388 32.308 22.462 32.308 23.758C32.308 24.394 32.134 25.054 31.786 25.738C31.45 26.422 30.856 27.148 30.004 27.916L18.916 37.798V41.578Z" fill="white"/>
<defs>
<linearGradient id="paint0_linear_688:240" x1="25" y1="0.399475" x2="25" y2="53.9755" gradientUnits="userSpaceOnUse">
<stop stop-color="#00A9A7"/>
<stop offset="1" stop-color="#00BA89"/>
</linearGradient>
</defs>
</svg>
